PathFileType	4	(X/Y/Z)	/Users/visionmauri/Downloads/Videos/OAW13-top_Sports2D/OAW13-top_Sports2D_px_person00.trc
DataRate	CameraRate	NumFrames	NumMarkers	Units	OrigDataRate	OrigDataStartFrame	OrigNumFrames
27.0	27.0	10	22	m	27.0	0	1977
Frame#	Time	Hip			RHip			RKnee			RAnkle			RBigToe			RSmallToe			RHeel			LHip			LKnee			LAnkle			LBigToe			LSmallToe			LHeel			Neck			Head			Nose			RShoulder			RElbow			RWrist			LShoulder			LElbow			LWrist			
		X1	Y1	Z1	X2	Y2	Z2	X3	Y3	Z3	X4	Y4	Z4	X5	Y5	Z5	X6	Y6	Z6	X7	Y7	Z7	X8	Y8	Z8	X9	Y9	Z9	X10	Y10	Z10	X11	Y11	Z11	X12	Y12	Z12	X13	Y13	Z13	X14	Y14	Z14	X15	Y15	Z15	X16	Y16	Z16	X17	Y17	Z17	X18	Y18	Z18	X19	Y19	Z19	X20	Y20	Z20	X21	Y21	Z21	X22	Y22	Z22
0	0.0	524.4546540556223	717.3242032565372	0.0	511.21665685217334	718.5850285298413	0.0	506.8039943515502	765.863528431372	0.0	504.9128435037599	813.7725860305678	0.0	534.5407878526208	825.1194591012102	0.0	540.8446617966	825.7497831666574	0.0	534.5407923108764	821.3369566056028	0.0	509.95576570138144	718.5850471992238	0.0	506.8039473284433	765.8635897958402	0.0	537.0622194158766	813.1422307185917	0.0	532.0199759999817	824.4890930118431	0.0	540.8446415939476	825.7498639658759	0.0	505.54316637413194	821.3369784080544	0.0	526.9762063098258	647.9820630675523	0.0	528.8672382546524	617.0928167937539	0.0	526.9760139517879	645.4599798611213	0.0	547.7788013853509	654.2859798151767	0.0	496.0874492479758	689.587390014065	0.0	506.80358333594484	707.8684158630937	0.0	505.5431749755068	654.9163667409202	0.0	496.7179445900211	689.5873103344728	0.0	543.9966591698974	708.4988086191198	0.0
1	0.03705578047683311	524.0471469286965	717.2619059626595	0.0	511.11111261144873	718.6854832544312	0.0	506.1172494214586	766.333930939052	0.0	504.4646442420305	813.50016528942	0.0	525.0104889793865	825.7913868942451	0.0	526.7293588497857	825.7788549998867	0.0	525.2915469365986	820.3967730420337	0.0	518.8112701585945	719.0119333500913	0.0	517.3814020645465	766.3112448670371	0.0	537.0559407667473	812.840658156355	0.0	532.0468635810539	824.947023255922	0.0	540.1406205968145	826.0735744447384	0.0	515.2509094657532	820.6605614709861	0.0	526.3507057025967	648.058728133664	0.0	527.9843760420322	616.1397502542077	0.0	526.3254763677564	644.416469339533	0.0	532.9578629612901	654.4187405117123	0.0	492.03349635676784	689.6091180374635	0.0	506.20308729681443	708.3083653231031	0.0	519.7580876877147	655.3246976806914	0.0	515.1513911710917	689.5651395762455	0.0	543.7169833615732	709.1968603985428	0.0
2	0.07411156095366622	523.8628589454424	717.234766268984	0.0	510.38052017018094	718.7303490396175	0.0	504.45147479233464	766.9639233668829	0.0	503.05376221705967	813.3926533368793	0.0	521.2887086306212	826.060946319223	0.0	520.9551306268324	825.8349213623768	0.0	521.5360322448439	819.7326573364098	0.0	522.5178090435818	719.2689451166049	0.0	521.5642527739384	767.0628295095973	0.0	537.9123950924244	812.9417021499887	0.0	532.8028903900085	825.1331137885333	0.0	540.2717574356034	826.3531312641256	0.0	519.1263474839575	820.1871628772241	0.0	526.1106290966242	648.1017529331779	0.0	527.1816766172492	614.8837617108335	0.0	525.8926973841931	643.6556241431321	0.0	527.2068869889905	654.7175631919148	0.0	494.0348676001141	689.7818041645896	0.0	505.4165198006492	708.7058302122791	0.0	525.2296385907619	655.6451590879758	0.0	522.3471139527832	689.808308982153	0.0	544.0641049281057	709.5417692740203	0.0
3	0.11116734143049933	524.0397124603313	717.1092362039866	0.0	509.3002226569663	718.6622273983372	0.0	505.64607006993344	767.4065291938101	0.0	504.2429744663349	813.6948601394444	0.0	526.5023612174173	825.6886762438769	0.0	528.1450423308971	825.9145534421024	0.0	526.2748128947176	820.1604846927544	0.0	518.1205841815699	718.8996199282727	0.0	515.8276080266218	767.6534033087823	0.0	536.4652947954285	813.6525620393038	0.0	534.2249059353924	824.8743859350342	0.0	541.6898249906134	826.1991918944815	0.0	513.9343477501554	820.5138698577882	0.0	526.4715582994214	648.0402858778996	0.0	527.1399422837187	614.2420008685843	0.0	526.1297683092163	644.0515863316191	0.0	535.3957034138363	654.8816922143313	0.0	511.0768723563165	689.9645459636732	0.0	505.044522933116	708.920122449971	0.0	517.3569248652506	655.3938643427651	0.0	512.2177876127748	690.2201318790998	0.0	544.930848238181	709.291670676874	0.0
4	0.14822312190733244	524.3468231699248	716.8243590339706	0.0	510.8187703151761	718.5426531888112	0.0	515.3733010872303	767.4481923567811	0.0	513.5609927104118	814.2359188243753	0.0	533.7358973616713	825.1330283913667	0.0	538.5116596640346	825.9772412015633	0.0	533.1320516208481	821.4661657974257	0.0	511.61281358898503	718.1741810607756	0.0	507.6607194550575	767.4630545296882	0.0	527.3896602540299	814.4674257954198	0.0	533.266633987929	824.4721065970277	0.0	540.0904770818146	825.6301875801785	0.0	506.4587981153967	821.7360650792234	0.0	526.9811953478875	647.8517145083262	0.0	527.8860543405879	614.5649979846604	0.0	526.9265101251556	644.5459993971554	0.0	546.7050428448764	654.6662323236676	0.0	537.4535519311922	689.9369512577299	0.0	507.92557087600363	708.9802282337345	0.0	506.66611438126193	654.6675596177562	0.0	498.16642782798027	690.3993018743748	0.0	542.9837388027394	708.900867881749	0.0
5	0.18527890238416556	524.5100360654478	716.6116796124033	0.0	518.7966455337245	718.5228746327408	0.0	530.257634703864	767.3393772790512	0.0	527.9359834916137	814.5072814018387	0.0	535.9882743324226	824.9177292458913	0.0	542.0156519815523	825.9343950915704	0.0	535.6025479298306	822.18566157793	0.0	509.2565174565283	717.9922931311407	0.0	504.83650746706246	766.7895740908366	0.0	513.3739382358365	814.682655163265	0.0	525.5367033531536	824.3097568376496	0.0	528.5439655670657	825.2940092017252	0.0	503.785208130836	823.0650416999295	0.0	527.168407569349	647.6052918557933	0.0	528.5265343441716	614.681261833951	0.0	527.5647685916458	643.1832321085988	0.0	550.2363968057446	654.4530826747875	0.0	554.2740302031375	689.7522624232073	0.0	517.7582208473181	708.9850158614408	0.0	503.5677248157588	654.3036590688263	0.0	493.88535089099116	690.2657276638279	0.0	533.5268853360033	708.8580815070335	0.0
6	0.22233468286099867	524.5252505792544	716.5641742855895	0.0	530.5622296772618	718.5980319762774	0.0	539.6765339614286	767.3505293617058	0.0	537.0785388099088	814.4133047299921	0.0	535.1438756466513	824.9786137613944	0.0	541.0823287312899	825.8195953406711	0.0	535.1876929330963	822.0512380109534	0.0	509.7860243071432	718.285654317641	0.0	505.614777720054	766.5025017016042	0.0	504.32512442378663	814.360307055596	0.0	513.3240271397525	824.3910282812591	0.0	510.5989095821198	825.4187888055477	0.0	504.4152608054626	823.7630015491753	0.0	527.1440327297678	647.4010814524166	0.0	528.6274067471343	614.1424784671713	0.0	527.715892705715	641.3408054790787	0.0	548.98221787346	654.5073344162536	0.0	556.3503310900007	689.7029885249523	0.0	531.601107114908	708.9415527534434	0.0	504.9667915006203	654.4268303504524	0.0	495.7069876438455	690.1675266220308	0.0	519.4540827755305	708.9395023021726	0.0
7	0.2593904633378318	524.489627359054	716.4646571503948	0.0	538.0319183253978	718.5082018928215	0.0	540.7732369202878	767.4908833214732	0.0	538.116110011158	814.3079769068011	0.0	534.5742992620771	825.0915585115519	0.0	540.2991194660596	825.866168176492	0.0	534.7400710701628	822.3741305779461	0.0	510.55261957020235	718.1368612532409	0.0	506.43888469693974	766.7657016598984	0.0	503.19189264206256	814.0608511750237	0.0	505.04623209205187	824.5001571028689	0.0	498.98070922821	825.5241294076711	0.0	505.1084022808111	823.8896431409753	0.0	527.1042776967668	647.312680378872	0.0	528.6071812726254	614.0462880413145	0.0	527.6401423507175	641.741108677065	0.0	548.1333010910281	654.483518796862	0.0	553.8077376798485	689.9883162014795	0.0	540.8948299406816	708.8677071768223	0.0	505.7688691677786	654.3651112791441	0.0	496.83063951638655	690.3104853998209	0.0	510.1030694584734	708.7667429911392	0.0
8	0.2964462438146649	524.4640243714089	716.3227465826026	0.0	539.0181396431907	718.1430662198004	0.0	539.2591702645324	767.5349345416683	0.0	536.6194144502581	814.3743016937542	0.0	534.5952218719605	825.2023122619198	0.0	540.2793708640941	826.1194250719685	0.0	534.6577099947237	823.1472424315397	0.0	510.8022806632321	717.5369379161862	0.0	506.6684708788234	767.0312931681682	0.0	504.6891805577951	814.0526770063448	0.0	504.2408855623986	824.4344289375526	0.0	497.3450449986989	825.3882691994871	0.0	505.13797577628833	823.7504972088778	0.0	527.0489151748759	647.3158790917428	0.0	528.7388829709435	614.5671198420698	0.0	527.3980157036718	643.2054544065414	0.0	548.1309052098395	654.2484538664418	0.0	552.8914732128358	690.3616781581253	0.0	543.2278194417547	708.8387354996955	0.0	505.60628494157675	654.0631096525719	0.0	496.58080135570975	690.5571227432106	0.0	508.1750815930151	708.3966256698809	0.0
9	0.333502024291498	524.4269857291328	716.3483840021321	0.0	537.9451590071853	717.9158345941222	0.0	538.7971497373479	767.3672605359912	0.0	536.1982355211634	814.477539303733	0.0	534.6638743440101	825.273735169042	0.0	540.4837098203404	826.2878238295498	0.0	534.6616416752254	823.0871488146516	0.0	510.42556258578037	717.2858970911814	0.0	506.6263647206472	767.07771639818	0.0	505.23316831527626	814.2128651919242	0.0	507.3983157931144	824.2229340029414	0.0	498.9937621736754	825.2919438471228	0.0	504.8090313735375	823.3748505883816	0.0	527.0067355739834	647.2101261687378	0.0	528.6823276469125	614.199990645327	0.0	526.8433345916924	642.499942358265	0.0	548.2251610344259	654.1155120509685	0.0	552.9359099266593	690.5133763020227	0.0	542.621050055502	708.869697046802	0.0	505.32369147287056	654.0045414632799	0.0	496.27519126356367	690.6956840239309	0.0	509.02697282678287	708.0963318647731	0.0
